<?xml version="1.0" encoding="utf-8"?>
<!-- Generator: Adobe Illustrator 21.0.1, SVG Export Plug-In . SVG Version: 6.00 Build 0)  -->
<svg version="1.1" id="_x33_" xmlns="http://www.w3.org/2000/svg" xmlns:xlink="http://www.w3.org/1999/xlink" x="0px" y="0px"
	 viewBox="0 0 1000 1000" style="enable-background:new 0 0 1000 1000;" xml:space="preserve">
<style type="text/css">
	.st0{fill:none;stroke:#000000;stroke-width:6;stroke-miterlimit:10;}
</style>
<g>
	<path class="st0" d="M574.7,583.4c-11.4,38.4-29.2,59.6-43.2,71.8c-18.5,16.1-39.9,24.8-41.7,44c-1.1,12.7,7.6,15.9,6.7,30
		c-1.2,18.2-17.5,37.3-36.7,41.7c-17.1,4-34.2-5-53.8-21.6c-93-78.4-114.5-201.1-114.5-201.1c-8.1-46.5-17.9-102.3,10.5-163.8
		c25.6-55.5,70.8-90,101-104.8c8.5-4.2,35.4-16.5,72.7-20.2c2.2-0.2,5.2-0.5,9-0.7c40.1-2.4,87.9,13.1,113.4,22.5"/>
	<path class="st0" d="M521.4,661.3c15,3.2,36.8,5.7,61-0.1c74.9-17.9,124.8-102.7,129.6-180.1c3-47.8-11.3-94.5-37.4-132.4"/>
	<path class="st0" d="M561.7,576.9c9,7.7,20.9,11.8,32.7,11.3"/>
	<path class="st0" d="M650.5,358c6.6-1.3,28.5-6.4,42.4-26.2c16.4-23.4,18.3-62.6-5.4-80.6c-22.6-17.2-56.2-5.7-74.4,10.4
		c-18.5,16.4-22,38.5-22.8,45.5"/>
	<path class="st0" d="M671.5,260.2c-6.5,0.2-22.5,1.7-38,13c-21.9,16.1-26.2,39.9-27,45"/>
	<path class="st0" d="M418.4,273.6c-3-20.9-20.8-38.7-41.7-41.7c-22.3-3.2-43.1,9.5-51.8,28.1c-10.3,22.1-2.4,50,19.6,64.6"/>
	<path class="st0" d="M392.5,284.9c-1.8-4.5-6.3-14.3-16.7-22.4c-9.4-7.4-18.9-9.8-23.6-10.6"/>
</g>
<path d="M483.5,694.2c-36.8-47.3-91-163.3-102-229c-17-101.3,53.8-170.9,34-184c-17.8-11.7-82.6,37.9-113.5,103.2
	c-32.9,69.6-17.6,138.1-10.5,163.8c0,0,11.4,64.9,53.3,130.4l48-18.2c-3.1,4.1-10.6,13.1-23.8,18.6c-7.9,3.3-15.3,4.2-21.3,4.2
	c8.2,12.4,17.5,24.7,28,36.6l37.7-17.6c-1.2,2.6-5.9,12.2-17.3,17.7c-6.5,3.1-12.6,3.6-17.3,3.4c8.3,9.1,17.3,17.8,27.1,26.1
	c0.3,0.3,0.6,0.5,0.9,0.8l27.8-13.8c-2,3.1-7.2,10.1-16.7,14.7c-2.4,1.1-4.7,2-6.9,2.6c17.5,13.8,33,21,48.6,17.4
	c18.9-4.4,35.2-23,36.7-41.7C497.8,712.3,487,698.7,483.5,694.2z"/>
<path d="M534.5,397.2c-25.4,0-46,23.5-46,52.5s20.6,52.5,46,52.5s46-23.5,46-52.5S559.9,397.2,534.5,397.2z M525.5,490.2
	c-7.7,0-14-8.5-14-19s6.3-19,14-19s14,8.5,14,19S533.2,490.2,525.5,490.2z M553,458.2c-10.2,0-18.5-10.5-18.5-23.5
	s8.3-23.5,18.5-23.5s18.5,10.5,18.5,23.5S563.2,458.2,553,458.2z"/>
<ellipse class="st0" cx="528" cy="459.7" rx="57.5" ry="65.5"/>
<g>
	<g>
		<g>
			<path d="M471.7,569.4c4-10.7,7.9-21.5,11.9-32.2c1.7-4.5-5.6-6.5-7.2-2c-4,10.7-7.9,21.5-11.9,32.2
				C462.8,571.9,470,573.9,471.7,569.4L471.7,569.4z"/>
		</g>
	</g>
	<g>
		<g>
			<path d="M495.4,569.4c4-10.7,7.9-21.5,11.9-32.2c1.7-4.5-5.6-6.5-7.2-2c-4,10.7-7.9,21.5-11.9,32.2
				C486.5,571.9,493.7,573.9,495.4,569.4L495.4,569.4z"/>
		</g>
	</g>
	<g>
		<g>
			<path d="M519.1,569.4c4-10.7,7.9-21.5,11.9-32.2c1.7-4.5-5.6-6.5-7.2-2c-4,10.7-7.9,21.5-11.9,32.2
				C510.2,571.9,517.5,573.9,519.1,569.4L519.1,569.4z"/>
		</g>
	</g>
	<g>
		<g>
			<path d="M542.9,569.4c4-10.7,7.9-21.5,11.9-32.2c1.7-4.5-5.6-6.5-7.2-2c-4,10.7-7.9,21.5-11.9,32.2
				C534,571.9,541.2,573.9,542.9,569.4L542.9,569.4z"/>
		</g>
	</g>
	<g>
		<g>
			<path d="M566.6,569.4c4-10.7,7.9-21.5,11.9-32.2c1.7-4.5-5.6-6.5-7.2-2c-4,10.7-7.9,21.5-11.9,32.2
				C557.7,571.9,564.9,573.9,566.6,569.4L566.6,569.4z"/>
		</g>
	</g>
</g>
</svg>
